PathFileType	4	(X/Y/Z)	C:\Users\dbl\Desktop\20210112(1)\20210112\bx_y_5_1802.trc
DataRate	CameraRate	NumFrames	NumMarkers	Units	OrigDataRate	OrigDataStartFrame	OrigNumFrames
50.00	50.00	       6	43	mm	50.00	120	       478
Frame#	Time	Top.Head			R.Acromium			L.Acromium			Sternum			R.ASIS			L.ASIS			V.Sacral			R.Thigh.Upper			R.Thigh.Front			R.Thigh.Rear			R.Knee.Lat			R.Knee.Med			R.Shank.Upper			R.Shank.Front			R.Shank.Rear			R.Ankle.Lat			R.Midfoot.Lat			R.Toe.Lat			R.Toe.Tip			R.Toe.Med			R.Ankle.Med			R.Midfoot.Sup			R.Heel			L.Thigh.Upper			L.Thigh.Front			L.Thigh.Rear			L.Knee.Lat			L.Knee.Med			L.Shank.Upper			L.Shank.Front			L.Shank.Rear			L.Ankle.Lat			L.Midfoot.Lat			L.Toe.Lat			L.Toe.Tip			L.Toe.Med			L.Ankle.Med			L.Midfoot.Sup			L.Heel			origin1 front left			origin2 front right			origin 3 back right			origin 4 back leftt			
		X1	Y1	Z1	X2	Y2	Z2	X3	Y3	Z3	X4	Y4	Z4	X5	Y5	Z5	X6	Y6	Z6	X7	Y7	Z7	X8	Y8	Z8	X9	Y9	Z9	X10	Y10	Z10	X11	Y11	Z11	X12	Y12	Z12	X13	Y13	Z13	X14	Y14	Z14	X15	Y15	Z15	X16	Y16	Z16	X17	Y17	Z17	X18	Y18	Z18	X19	Y19	Z19	X20	Y20	Z20	X21	Y21	Z21	X22	Y22	Z22	X23	Y23	Z23	X24	Y24	Z24	X25	Y25	Z25	X26	Y26	Z26	X27	Y27	Z27	X28	Y28	Z28	X29	Y29	Z29	X30	Y30	Z30	X31	Y31	Z31	X32	Y32	Z32	X33	Y33	Z33	X34	Y34	Z34	X35	Y35	Z35	X36	Y36	Z36	X37	Y37	Z37	X38	Y38	Z38	X39	Y39	Z39	X40	Y40	Z40	X41	Y41	Z41	X42	Y42	Z42	X43	Y43	Z43	

120	2.380	-270.82965	126.63535	1159.79663	-431.03296	-33.91281	921.47479	-446.08401	285.21371	926.69629	-530.95795	101.95359	1065.72681	-835.71167	5.93132	766.17712	-820.25671	229.65453	817.43396	-1030.79895	114.62761	782.21814	-812.80988	-81.18220	686.98950	-730.57538	-23.91119	720.05933	-690.38495	-91.47272	605.15930	-606.99915	-80.42722	557.88104	-561.49286	29.48312	546.45551	-592.76697	-76.60919	518.20276	-548.71912	-28.84916	470.68329	-659.28394	-68.90123	458.23514	-756.95044	-3.67710	208.11772	-665.69684	-68.63021	162.66458	-625.38141	-80.18778	158.89372	-559.07269	-44.51522	161.76189	-600.83057	17.30748	165.56558	-701.67273	77.64585	211.79555	-672.85907	53.82806	155.01431	-788.32806	62.57025	178.91280	-790.65704	303.28513	694.06836	-725.06860	235.55255	718.68115	-703.79358	313.74747	606.72473	-603.95068	294.24216	553.10461	-535.08575	185.10147	539.59113	-573.73596	292.43445	520.45557	-522.86267	244.43872	479.51819	-632.10474	289.45441	464.86169	-760.77954	223.36732	206.17345	-666.18439	298.37180	161.07553	-629.79816	307.18195	161.24321	-561.26691	264.32556	163.65224	-592.26544	223.30385	171.37207	-700.54840	150.14095	209.53717	-673.69873	174.09511	153.03401	-789.73865	168.33858	190.66852	-528.29388	304.34406	146.43713	-517.05365	-72.99627	142.97556	-875.88342	-78.79007	140.99153	-882.58197	296.20273	144.67584	
121	2.400	-271.79855	126.38074	1164.30310	-432.82083	-34.72765	926.75281	-448.54410	285.21414	931.52777	-531.23218	101.80434	1068.44043	-836.31317	5.89467	769.10657	-819.61438	229.38713	819.81586	-1031.07971	114.71330	785.32813	-813.51453	-81.35419	689.04938	-730.90405	-24.27913	721.69379	-691.44519	-91.43960	606.38733	-608.33527	-80.46598	558.64355	-562.63153	29.46824	547.09344	-594.09985	-76.61185	518.88763	-549.93494	-28.97324	471.24933	-660.40100	-68.99566	458.65366	-757.25714	-3.80532	208.07050	-665.71356	-68.73454	162.61923	-625.37811	-80.26649	158.82663	-559.19611	-44.50325	161.55159	-600.89478	17.22662	165.65016	-702.04022	77.77059	212.10609	-672.87457	53.80804	155.02628	-788.46637	62.45467	178.81960	-791.22583	302.98154	696.30273	-725.49646	235.22343	720.65710	-704.56158	313.19382	608.33948	-605.00458	293.63196	554.28101	-536.28510	184.22974	540.22339	-574.76819	291.35220	520.96832	-524.11920	243.86122	479.99155	-633.21753	288.49225	465.06003	-760.84863	223.51778	206.19952	-666.19452	298.36166	161.08698	-629.76031	307.12967	161.24693	-561.31616	264.30823	163.66521	-592.33405	223.27380	171.37271	-700.48444	150.12445	209.43266	-673.72272	174.07921	153.06822	-789.88214	168.47820	190.51961	-528.27887	304.38245	146.44556	-517.55023	-72.61155	142.61404	-875.94098	-78.83039	141.11037	-882.59131	296.20032	144.67641	
122	2.420	-272.94272	126.18672	1169.68066	-434.62442	-35.53154	932.76849	-450.93817	285.23288	937.10876	-531.53247	101.65221	1071.30127	-836.85675	5.78867	772.36743	-818.90558	229.11006	822.32324	-1031.30542	114.78986	788.83582	-814.11902	-81.46566	691.23865	-731.12360	-24.67793	723.48022	-692.45599	-91.32241	607.66919	-609.68140	-80.44495	559.49292	-563.71503	29.65055	547.82275	-595.44116	-76.55145	519.58966	-551.11487	-28.99148	471.94730	-661.47766	-69.09312	459.21008	-757.53711	-3.90162	208.04503	-665.76282	-68.74982	162.54568	-625.37036	-80.37682	158.74973	-559.37476	-44.40892	161.22458	-600.90295	17.20378	165.67320	-702.25836	77.76563	212.25348	-672.77905	53.86222	155.12169	-788.54205	62.39746	178.83327	-791.74805	302.65820	698.72906	-725.93475	234.79297	722.74359	-705.29828	312.58502	610.12402	-606.13123	293.16357	555.63477	-537.51825	183.24678	540.88361	-575.84351	290.30933	521.66943	-525.53052	243.35664	480.37274	-634.21875	287.64709	465.50378	-760.90540	223.59753	206.19475	-666.20532	298.36020	161.12033	-629.72198	307.08432	161.25435	-561.35095	264.25836	163.63353	-592.40918	223.24561	171.38046	-700.40759	150.14774	209.30312	-673.74792	174.06310	153.10143	-789.98962	168.62422	190.31271	-528.27692	304.38620	146.46100	-517.73480	-72.44130	142.47974	-876.00317	-78.77951	141.10400	-882.60364	296.17734	144.64720	
123	2.440	-274.37329	126.02395	1176.04541	-436.46323	-36.29165	939.48450	-453.23151	285.28735	943.38519	-531.85919	101.49749	1074.30811	-837.33093	5.65464	775.94568	-818.12939	228.82385	824.95435	-1031.49292	114.81693	792.68097	-814.60107	-81.49023	693.55273	-731.25769	-25.06519	725.41180	-693.41998	-91.18063	608.97296	-611.00732	-80.34422	560.40021	-564.79736	29.95203	548.60687	-596.77942	-76.44096	520.29700	-552.23706	-28.93810	472.70966	-662.52246	-69.07112	459.79428	-757.72296	-3.93226	208.00723	-665.84802	-68.74084	162.48711	-625.37250	-80.48920	158.65466	-559.53711	-44.28006	160.92276	-600.87140	17.24507	165.60960	-702.34015	77.69593	212.27560	-672.48395	54.03429	155.31900	-788.55939	62.37278	178.86987	-792.20654	302.33530	701.35706	-726.30475	234.35335	725.01434	-706.03247	311.92792	612.08075	-607.33539	292.79996	557.12982	-538.78094	182.25104	541.61243	-576.99097	289.36383	522.59363	-526.98572	242.86627	480.80679	-635.15662	286.93475	466.20871	-760.97888	223.60690	206.14548	-666.22394	298.36865	161.16100	-629.69189	307.07162	161.26195	-561.38654	264.20831	163.58789	-592.47455	223.22993	171.37457	-700.33813	150.20090	209.15634	-673.76117	174.05339	153.11697	-790.09735	168.74159	190.13002	-528.27686	304.35648	146.46252	-517.73938	-72.40951	142.45662	-876.08154	-78.66751	141.02425	-882.62103	296.15353	144.60234	
124	2.460	-276.20270	125.86512	1183.46021	-438.34979	-36.97348	946.88055	-455.44260	285.39307	950.30280	-532.21283	101.34050	1077.45935	-837.68481	5.50939	779.89587	-817.28503	228.52904	827.70721	-1031.61328	114.76823	796.81165	-814.95142	-81.47143	696.05896	-731.28455	-25.41191	727.47510	-694.34039	-91.00173	610.31415	-612.29095	-80.12179	561.33386	-565.92792	30.29881	549.38757	-598.10291	-76.27922	521.03204	-553.35980	-28.85422	473.43817	-663.57465	-68.84370	460.31412	-757.79907	-3.93809	207.93976	-665.96942	-68.73717	162.44470	-625.39716	-80.57058	158.54010	-559.62195	-44.19754	160.76689	-600.83771	17.31337	165.52411	-702.34912	77.64076	212.23929	-672.03986	54.27194	155.55559	-788.54254	62.35609	178.86726	-792.61755	302.01587	704.20532	-726.50226	234.01428	727.53918	-706.80670	311.24796	614.18591	-608.57709	292.44360	558.67938	-540.07654	181.33548	542.39838	-578.22974	288.45926	523.63257	-528.37427	242.24821	481.48514	-636.14355	286.28964	467.03625	-761.07343	223.58037	206.07356	-666.24078	298.37143	161.20183	-629.67163	307.09460	161.26242	-561.42493	264.17709	163.56549	-592.52142	223.22797	171.33250	-700.32068	150.24922	209.01575	-673.75873	174.05879	153.10374	-790.19617	168.82240	189.97533	-528.26691	304.30020	146.43317	-517.69141	-72.41068	142.44006	-876.18439	-78.55918	140.96913	-882.63263	296.13992	144.56830	
125	2.480	-278.49292	125.70319	1191.95508	-440.27603	-37.56601	954.96448	-457.59991	285.48904	957.85095	-532.59393	101.18153	1080.75330	-837.86877	5.37289	784.25616	-816.37183	228.22614	830.57996	-1031.60364	114.62738	801.21307	-815.15167	-81.48278	698.79474	-731.16400	-25.71989	729.66711	-695.20697	-90.73086	611.75177	-613.52319	-79.78439	562.28534	-567.10608	30.64104	550.09442	-599.41614	-76.03504	521.81744	-554.53186	-28.73491	474.10724	-664.64227	-68.46338	460.74969	-757.82104	-3.98641	207.88174	-666.10236	-68.74708	162.39853	-625.46124	-80.60663	158.40945	-559.61566	-44.20409	160.77327	-600.83228	17.35952	165.50356	-702.35449	77.61160	212.18120	-671.63574	54.45559	155.70012	-788.50519	62.32744	178.81067	-792.99042	301.72107	707.28497	-726.47870	233.86592	730.33185	-707.65271	310.56464	616.37653	-609.80701	292.01016	560.20386	-541.40405	180.54987	543.20001	-579.55212	287.54288	524.66150	-529.62335	241.36119	482.54779	-637.25604	285.67276	467.83759	-761.18732	223.54338	205.99692	-666.24170	298.36276	161.22990	-629.65778	307.13037	161.24928	-561.47137	264.15726	163.58186	-592.56079	223.23053	171.25497	-700.40436	150.23976	208.91476	-673.74347	174.09232	153.04916	-790.27997	168.87167	189.79620	-528.25543	304.22787	146.37941	-517.65277	-72.38909	142.39880	-876.28699	-78.50886	140.99184	-882.62262	296.13049	144.55731	
